<?xml version="1.0" encoding="utf-8"?>
<!-- Generator: Adobe Illustrator 18.1.1, SVG Export Plug-In . SVG Version: 6.00 Build 0)  -->
<!DOCTYPE svg PUBLIC "-//W3C//DTD SVG 1.1//EN" "http://www.w3.org/Graphics/SVG/1.1/DTD/svg11.dtd">
<svg version="1.1"
	 id="svg2" xmlns:rdf="http://www.w3.org/1999/02/22-rdf-syntax-ns#" xmlns:cc="http://creativecommons.org/ns#" xmlns:inkscape="http://www.inkscape.org/namespaces/inkscape" xmlns:dc="http://purl.org/dc/elements/1.1/" xmlns:svg="http://www.w3.org/2000/svg" xmlns:sodipodi="http://sodipodi.sourceforge.net/DTD/sodipodi-0.dtd" inkscape:version="0.48.2 r9819" sodipodi:docname="bitcoin-logo-noshadow.svg"
	 xmlns="http://www.w3.org/2000/svg" xmlns:xlink="http://www.w3.org/1999/xlink" x="0px" y="0px" viewBox="492 -492 1024 1024"
	 enable-background="new 492 -492 1024 1024" xml:space="preserve">
<g>
	<path fill="#419D9E" d="M519.7-13c0-248.7,201.6-450.3,450.3-450.3c248.7,0,450.3,201.6,450.3,450.3S1218.7,437.3,970,437.3
		C721.3,437.3,519.7,235.7,519.7-13"/>
	<path fill="#FFFFFF" d="M1195.4-153.9c-11.5-1.7-21.9-2.6-31.3-2.6c-25.2,0-47.9,2.4-68,7.1c-20.1,4.7-38.3,9.7-54.5,14.9
		L994.1,63.9H830.5c14.2-15.3,29.5-31.2,45.8-47.7c16.4-16.5,32.4-32.4,48-47.5C940-46.4,954.5-60.2,968-72.7
		c13.4-12.6,24.3-22.5,32.7-29.7l45.3-188.1h-79.5l-32.3,134H791.2l-16.4,66.6h116.8c-12.7,11.7-26.5,24.6-41.2,39
		c-14.7,14.4-29.5,29.4-44.2,45c-14.8,15.7-28.9,31.1-42.6,46.4c-10,11.2-19.1,21.8-27.5,31.8l-13.9,58.2H866l-32.4,134.3h79.7
		l32.2-134.3H978h5.5h78.6l50.6-211.9c4.1-1.1,9.4-2.2,15.8-3.1c6.4-0.9,12.2-1.4,17.5-1.4c14.3,0,25.1,0.8,32.4,2.6
		c7.3,1.7,14.7,3.5,22.2,5.3l16.9-70.7C1210.8-151,1203.5-152.7,1195.4-153.9"/>
</g>
</svg>
