<?xml version="1.0" encoding="utf-8"?>
<!-- Generator: Adobe Illustrator 18.1.1, SVG Export Plug-In . SVG Version: 6.00 Build 0)  -->
<!DOCTYPE svg PUBLIC "-//W3C//DTD SVG 1.1//EN" "http://www.w3.org/Graphics/SVG/1.1/DTD/svg11.dtd">
<svg version="1.1"
	 id="svg3039" xmlns:rdf="http://www.w3.org/1999/02/22-rdf-syntax-ns#" xmlns:cc="http://creativecommons.org/ns#" xmlns:inkscape="http://www.inkscape.org/namespaces/inkscape" xmlns:dc="http://purl.org/dc/elements/1.1/" xmlns:svg="http://www.w3.org/2000/svg" xmlns:sodipodi="http://sodipodi.sourceforge.net/DTD/sodipodi-0.dtd" inkscape:version="0.48.0 r9654" inkscape:export-ydpi="12" inkscape:export-filename="/home/orion/projects2/bitcoin/tx_mined.png" inkscape:export-xdpi="12" sodipodi:docname="inout3.svg"
	 xmlns="http://www.w3.org/2000/svg" xmlns:xlink="http://www.w3.org/1999/xlink" x="0px" y="0px" viewBox="40 -40 120 120"
	 enable-background="new 40 -40 120 120" xml:space="preserve">
<sodipodi:namedview  borderopacity="1" inkscape:cy="67.287943" inkscape:cx="87.12655" pagecolor="#ffffff" objecttolerance="10" inkscape:zoom="1" showgrid="false" gridtolerance="10" guidetolerance="10" bordercolor="#666666" id="namedview3041" inkscape:pageshadow="2" inkscape:window-height="1127" inkscape:window-x="0" inkscape:window-maximized="1" inkscape:current-layer="layer7" inkscape:window-y="25" inkscape:window-width="1920" inkscape:pageopacity="0">
	</sodipodi:namedview>
<g id="layer2" inkscape:label="base" inkscape:groupmode="layer" display="none">
	<path id="path3053" sodipodi:nodetypes="cccccccccccccc" inkscape:connector-curvature="0" display="inline" fill="#AFAFAF" d="
		M85.4-23c-14,0.2-25,3.3-37.4,9.6c-9,21.9-6.7,46.4-2,69c26.2,13.2,55.6,13,81.8-0.2c3.9-9.7,1.6-12.8,2.4-23.2
		c-6.2,0.2-13-4.5-15.9,3c-1.5,4.5,1.9,7.4-5,8.1c-16.1,5.2-31.4,5.8-47.3-1.1C59.7,28.4,58.6,13.7,62.5,0c16.9-6.6,33.1-6.1,50-0.2
		c1.3,5.9,1.6,5.8,2.4,11.7c5.6,0.4,14.7,1.8,16.4-5.5c0.5-10-1.9-14.4-4.1-20.3C113.7-19,99.8-23.3,85.4-23z"/>
</g>
<g id="layer3" inkscape:label="arrow_out" inkscape:groupmode="layer" display="none">
	<path id="path3844" sodipodi:nodetypes="cccccscccc" inkscape:connector-curvature="0" display="inline" fill="#6E6E6E" d="
		M104,25.5l0.3-9.5l36.2-0.2L133,7l3.8-7.6c0,0,23.4,20.8,22.5,21.2c-0.9,0.4-23.2,22.7-23.2,22.7l-3.1-8.9l7.5-8.6L104,25.5z"/>
</g>
<g id="layer4" inkscape:label="arrow_in" inkscape:groupmode="layer" display="none">
	<path id="path4080" sodipodi:nodetypes="cccccscccc" inkscape:connector-curvature="0" display="inline" fill="#6E6E6E" d="
		M139.3,25.5L139,16l-36.2-0.2l7.8-6.3l-4.2-9.3c0,0-23.4,20-22.5,20.4s23.2,21,23.2,21l3.5-9.6l-7.9-6.1L139.3,25.5z"/>
</g>
<g>
	<g>
		<path fill="#419D9E" d="M100-30.4c-27.6,0-50,22.4-50,50c0,27.6,22.4,50,50,50c27.6,0,50-22.4,50-50C150-8,127.6-30.4,100-30.4z"
			/>
	</g>
	<g>
		<path fill="#FFFFFF" d="M86.4-2.9l-6.6,6.6l-1.1-1.1c-0.9-0.9-2.4-0.9-3.3,0s-0.9,2.4,0,3.3l1.1,1.1L70,13.5
			c-0.6,0.6-0.5,1.7,0.1,2.3l4.2,4.2c0.6,0.6,1.7,0.7,2.3,0.1l6.6-6.6L111.6,42c0.9,0.9,2.4,0.9,3.3,0s0.9-2.4,0-3.3L86.4,10.2
			L93,3.6C93.6,3,93.5,2,92.9,1.3l-4.2-4.2C88.1-3.5,87-3.5,86.4-2.9z"/>
		<path fill="#FFFFFF" d="M128.3,20.5l2-6.5c0.2-0.6,0.1-1.3-0.4-1.8l-5.3-5.3l1.1-1.1c0.9-0.9,0.9-2.4,0-3.3s-2.4-0.9-3.3,0
			l-1.1,1.1l-6.5-6.5c-0.7-0.7-1.8-0.6-2.4,0l-4.2,4.2c-0.6,0.6-0.6,1.7,0,2.4l6.5,6.5L86.3,38.7c-0.9,0.9-0.9,2.4,0,3.3
			c0.9,0.9,2.4,0.9,3.3,0l28.5-28.5l7.6,7.6C126.5,21.9,128,21.6,128.3,20.5z"/>
	</g>
</g>
</svg>
